<svg xmlns="http://www.w3.org/2000/svg" width="21" height="21" viewBox="0 0 21 21" fill="none">
<path d="M13.4486 15.8139C11.7784 17.112 9.67644 17.7244 7.57077 17.5264C5.4651 17.3284 3.51403 16.3349 2.11483 14.7481C0.715624 13.1613 -0.0265047 11.1007 0.0395516 8.98566C0.105608 6.87066 0.974882 4.86037 2.47038 3.36411C3.96587 1.86785 5.97514 0.99813 8.08905 0.93204C10.203 0.86595 12.2626 1.60846 13.8485 3.00838C15.4345 4.4083 16.4275 6.36037 16.6254 8.46712C16.8233 10.5739 16.2113 12.6769 14.9138 14.3479L19.7341 19.1527C20.1422 19.5594 20.1428 20.2201 19.7355 20.6276C19.3282 21.0351 18.6675 21.0348 18.2605 20.6269L13.459 15.8139H13.4486ZM8.35675 15.4812C9.17553 15.4812 9.98629 15.3198 10.7427 15.0063C11.4992 14.6929 12.1865 14.2334 12.7655 13.6541C13.3445 13.0748 13.8037 12.3872 14.1171 11.6303C14.4304 10.8735 14.5917 10.0623 14.5917 9.2431C14.5917 8.4239 14.4304 7.61273 14.1171 6.85589C13.8037 6.09905 13.3445 5.41136 12.7655 4.8321C12.1865 4.25284 11.4992 3.79335 10.7427 3.47986C9.98629 3.16636 9.17553 3.00501 8.35675 3.00501C6.70316 3.00501 5.11728 3.66223 3.94801 4.8321C2.77874 6.00197 2.12185 7.58866 2.12185 9.2431C2.12185 10.8975 2.77874 12.4842 3.94801 13.6541C5.11728 14.824 6.70316 15.4812 8.35675 15.4812Z" fill="#6c7f69"/>
</svg>